<svg xmlns="http://www.w3.org/2000/svg" viewBox="0 0 150 150"><defs><style>.cls-1{fill:#a3d9d2;}.cls-2{fill:#4b3d4d;}.cls-3{fill:#4b988d;}</style></defs><title>Asset 8</title><g id="Layer_2" data-name="Layer 2"><g id="Layer_1-2" data-name="Layer 1"><circle class="cls-1" cx="75" cy="75" r="75"/><path class="cls-2" d="M118.5,86.1,74.75,129.86,31,86.1c-9.91-9.89-13.71-21.53-10.71-32.69A29.49,29.49,0,0,1,41.12,32.6a28.23,28.23,0,0,1,7.49-1c8.77,0,17.49,4,25.18,11.76l.93.94.94-.94C93,26,112,29.21,122.29,39.51S135.74,68.87,118.5,86.1Z"/><path class="cls-2" d="M124.12,37.64c-11-11-31-14.69-49.36,2.92C64.34,30.66,52.25,26.93,40.47,30.1a32.17,32.17,0,0,0-22.7,22.62C14.56,64.86,18.54,77.38,29.15,88L74.76,133.6,120.35,88C138.93,69.39,135.08,48.67,124.12,37.64ZM118.55,86.1,74.79,129.86,31,86.1c-9.9-9.89-13.7-21.53-10.71-32.69A29.5,29.5,0,0,1,41.16,32.6a28.36,28.36,0,0,1,7.5-1c8.76,0,17.49,4,25.18,11.76l.92.94.95-.94C93,26,112,29.21,122.34,39.51S135.79,68.87,118.55,86.1Z"/><path class="cls-3" d="M75.21,115.26a1.13,1.13,0,0,1-1.2-1.05V57.46a1.21,1.21,0,0,1,2.39,0v56.75A1.13,1.13,0,0,1,75.21,115.26Z"/><path class="cls-3" d="M74.25,100l-1.72-.61a67.47,67.47,0,0,1-7.35-3.2c-5-2.65-9.86-11.4-10.06-11.77l-1.33-2.5,2.72-.69c.26,0,6.63-1.6,14.47,3.44,8.8,5.62,4.25,13.67,4.2,13.8ZM57.74,83.66c1.1,1.9,5,8.22,8.67,10.17A62,62,0,0,0,73,96.74c.64-1.33,2.32-6.14-3.51-9.88A18,18,0,0,0,57.74,83.66Z"/><path class="cls-3" d="M75.7,100l-.92-1.53c0-.08-4.6-8.13,4.2-13.78,7.7-4.93,13.79-3.6,14.46-3.43l2.77.72-1.34,2.44c-.2.37-5,9.12-10.05,11.77a61,61,0,0,1-7.33,3.18ZM90.63,83.57a19,19,0,0,0-10.21,3.29c-5.82,3.74-4.17,8.5-3.52,9.88a61.09,61.09,0,0,0,6.63-2.91c3.7-2,7.59-8.28,8.69-10.17A12.11,12.11,0,0,0,90.63,83.57Z"/><path class="cls-3" d="M74.5,80.67l-1.6-.57a52.91,52.91,0,0,1-6-2.66c-4.1-2.16-7.88-8.92-8.3-9.68l-1.33-2.32,2.57-.65c.55-.14,5.6-1.32,11.94,2.83,6.14,4,4.61,9.68,3.5,11.55ZM61.34,67.26c1.08,1.82,4,6.41,6.78,7.88a49.17,49.17,0,0,0,5.16,2.26c.53-1.32,1.46-4.76-2.86-7.53A14.49,14.49,0,0,0,61.34,67.26Z"/><path class="cls-3" d="M75.46,80.67l-.86-1.48s-3.85-6.84,3.51-11.54c6.34-4.08,11.4-3,11.93-2.84l2.58.66-1.33,2.32c-.41.76-4.19,7.52-8.3,9.68a52.7,52.7,0,0,1-6,2.65ZM87.72,67.22a15.27,15.27,0,0,0-8.18,2.65c-4.31,2.76-3.41,6.25-2.86,7.53a49.17,49.17,0,0,0,5.16-2.26c2.77-1.47,5.7-6.06,6.77-7.88C88.37,67.25,88.07,67.22,87.72,67.22Z"/><path class="cls-3" d="M74.5,62.85l-1.6-.58a51.14,51.14,0,0,1-6-2.65c-4.1-2.12-7.81-8.89-8.3-9.65l-1.33-2.31L59.82,47c.55-.13,5.6-1.33,11.94,2.82,6.14,4,4.61,9.7,3.5,11.57ZM61.34,49.4c1.08,1.82,4,6.4,6.78,7.86a49.32,49.32,0,0,0,5.16,2.28c.53-1.32,1.46-4.76-2.86-7.53A14.49,14.49,0,0,0,61.34,49.4Z"/><path class="cls-3" d="M75.46,62.85l-.86-1.52c0-.08-3.85-6.84,3.51-11.56,6.38-4.08,11.42-3,11.93-2.82l2.56.66-1.32,2.31c-.41.77-4.19,7.53-8.3,9.69a51,51,0,0,1-6,2.65ZM87.71,49.4a15.21,15.21,0,0,0-8.17,2.65c-4.31,2.76-3.41,6.25-2.86,7.53a51.06,51.06,0,0,0,5.16-2.22c2.77-1.46,5.7-6,6.77-7.87C88.31,49.45,88,49.41,87.71,49.4Z"/></g></g></svg>