<svg xmlns="http://www.w3.org/2000/svg" viewBox="0 0 150 150"><defs><style>.cls-1{fill:#a3d9d2;}.cls-2{fill:#4b3d4d;}.cls-3{fill:none;}.cls-4{fill:#4b988d;}.cls-5{font-size:29.01px;fill:#f0f8f8;font-family:MyriadPro-Regular, Myriad Pro;}.cls-6{fill:#5fbfb1;}</style></defs><title>Asset 7</title><g id="Layer_2" data-name="Layer 2"><g id="Layer_1-2" data-name="Layer 1"><circle class="cls-1" cx="75" cy="75" r="75"/><path class="cls-2" d="M126,92.2,53.79,81.9l6.15-43.12,72.22,10.3Zm5.07-35.57L58.86,46.33,57.63,55l72.22,10.3ZM124,86.58v0a2.68,2.68,0,0,0-2.37-3l-10.87-1.24a2.69,2.69,0,0,0-3,2.37v.06a2.69,2.69,0,0,0,2.37,3L121,89A2.7,2.7,0,0,0,124,86.58Z"/><path class="cls-3" d="M72.21,78H64.66V72.16A14.17,14.17,0,0,1,72.21,78Z"/><path class="cls-4" d="M27.63,111.22H17.84V102A9.81,9.81,0,0,1,27.63,111.22Z"/><path class="cls-4" d="M27.64,60.59a9.8,9.8,0,0,1-9.8,9.8V60h9.79C27.64,60.22,27.64,60.4,27.64,60.59Z"/><circle class="cls-4" cx="33.09" cy="85.63" r="5.44"/><circle class="cls-4" cx="85.35" cy="85.63" r="5.44"/><path class="cls-4" d="M74.46,85.63A14.18,14.18,0,1,1,72.21,78,14.16,14.16,0,0,1,74.46,85.63Z"/><path class="cls-4" d="M102.77,60V70.39a9.8,9.8,0,0,1-9.8-9.8c0-.19,0-.37,0-.55Z"/><path class="cls-4" d="M102.77,102v9.26H93A9.82,9.82,0,0,1,102.77,102Z"/><path class="cls-4" d="M27.64,60.59a9.8,9.8,0,0,1-9.8,9.8V60h9.79C27.64,60.22,27.64,60.4,27.64,60.59Z"/><path class="cls-3" d="M102.77,60V70.39a9.8,9.8,0,0,1-9.8-9.8c0-.19,0-.37,0-.55Z"/><path class="cls-3" d="M102.77,102v9.26H93A9.82,9.82,0,0,1,102.77,102Z"/><path class="cls-4" d="M27.63,111.22H17.84V102A9.81,9.81,0,0,1,27.63,111.22Z"/><circle class="cls-4" cx="33.09" cy="85.63" r="5.44"/><circle class="cls-3" cx="85.35" cy="85.63" r="5.44"/><path class="cls-3" d="M74.46,85.63A14.18,14.18,0,1,1,72.21,78,14.16,14.16,0,0,1,74.46,85.63Z"/><text class="cls-5" transform="translate(51.53 93.06)">€</text><path class="cls-6" d="M93,60.59c0-.19,0-.37,0-.55H27.63c0,.18,0,.36,0,.55a9.8,9.8,0,0,1-9.8,9.8V102a9.81,9.81,0,0,1,9.79,9.26H93a9.82,9.82,0,0,1,9.79-9.26V70.39A9.8,9.8,0,0,1,93,60.59ZM33.09,91.08a5.45,5.45,0,1,1,5.44-5.45A5.45,5.45,0,0,1,33.09,91.08Zm27.22,8.71A14.15,14.15,0,1,1,74.46,85.63,14.16,14.16,0,0,1,60.31,99.79Zm25-8.71a5.45,5.45,0,1,1,5.44-5.45A5.45,5.45,0,0,1,85.35,91.08Z"/></g></g></svg>