<svg xmlns="http://www.w3.org/2000/svg" viewBox="0 0 150 150"><defs><style>.cls-1{fill:#a3d9d2;}.cls-2{fill:#4b3d4d;}.cls-3{fill:#f0c094;}</style></defs><title>Asset 6</title><g id="Layer_2" data-name="Layer 2"><g id="Layer_1-2" data-name="Layer 1"><circle class="cls-1" cx="75" cy="75" r="75"/><rect class="cls-2" x="52.99" y="22.33" width="7.64" height="17.01" rx="2.75" transform="translate(-7.55 36.84) rotate(-33.83)"/><rect class="cls-2" x="69.82" y="27.01" width="17.01" height="7.64" rx="2.75" transform="translate(9.11 78.74) rotate(-56.17)"/><rect class="cls-2" x="63.75" y="14.69" width="7.64" height="17.01" rx="2.55"/><path class="cls-3" d="M60.44,69.79l41.18-37.62a8.17,8.17,0,0,1,4.58,0,8.09,8.09,0,0,1,4.57,3.56,8.44,8.44,0,0,1,.51,7.12L88.91,66.74a8.4,8.4,0,0,1,7.63,1,8.24,8.24,0,0,1,3,6.61A8.77,8.77,0,0,1,96,81a10,10,0,0,1,7.12,1,9.86,9.86,0,0,1,4.06,4.57c1.57,4-.2,9.18-4.57,12.71a8.93,8.93,0,0,1,6.61-1,7.79,7.79,0,0,1,4.57,3,8.14,8.14,0,0,1,1,6.61,62.93,62.93,0,0,1-10.17,12.2A76.17,76.17,0,0,1,93,128.78c-5.58,3.6-8.43,5.42-11.7,6.1a25.26,25.26,0,0,1-12.71-1c-5.44-1.59-8.92-4.12-13.73-7.63a66.27,66.27,0,0,1-11.18-10.17c-3-3.48-5-5.83-6.61-9.66a29.8,29.8,0,0,1-2-14.23c.8-7.89,3.94-7.12,5.6-16.27,1.36-7.53,2-11.3,1.52-16.28-.18-1.77-.6-4.5,1-6.61s4.69-2.49,5.59-2.54A9.32,9.32,0,0,1,55.35,53c1.17,1.14,1.89,2.49,3.56,9.67C59.58,65.55,60.08,68,60.44,69.79Z"/></g></g></svg>