<svg xmlns="http://www.w3.org/2000/svg" viewBox="0 0 150 150"><defs><style>.cls-1{fill:#a3d9d2;}.cls-2{fill:#f2b950;}.cls-3{fill:#f0f8f8;}.cls-4{fill:#f0c094;}.cls-5{fill:none;stroke:#4b3d4d;stroke-miterlimit:10;}.cls-6{fill:#4b3d4d;}</style></defs><title>Asset 9</title><g id="Layer_2" data-name="Layer 2"><g id="Layer_1-2" data-name="Layer 1"><circle class="cls-1" cx="75" cy="75" r="75"/><circle class="cls-2" cx="100.63" cy="52.01" r="29.84"/><path class="cls-3" d="M112.59,66.19a16.67,16.67,0,0,1-8.25,2A15.06,15.06,0,0,1,93.56,64a13.85,13.85,0,0,1-3.67-7.16H86.1V53.85h3.37c-.06-.66-.12-1.08-.12-1.45a14.17,14.17,0,0,1,.18-2.1H86.1V47.41H90a14.9,14.9,0,0,1,3.79-7,16,16,0,0,1,11.38-4.51,15.78,15.78,0,0,1,7.41,1.68l-1.2,3.74a13.06,13.06,0,0,0-6.27-1.45,10.36,10.36,0,0,0-7.4,2.89,8.65,8.65,0,0,0-2.47,4.7h15V50.3H94.59c-.06.66-.13,1.32-.13,1.74a17.18,17.18,0,0,0,.07,1.81h15.65V56.8H95.13a9.14,9.14,0,0,0,2.35,4.34,10.16,10.16,0,0,0,7.58,3,15.35,15.35,0,0,0,6.81-1.57Z"/><path class="cls-4" d="M133.59,95.18a8.47,8.47,0,0,1-.37,2.5,8.72,8.72,0,0,1-5.1,5.34c-17.13,7.06-22,8.83-39.1,15.89a18.11,18.11,0,0,1-13.1.26q-5-1.82-10-3.76c-5.24-2-10.36-4-15.32-6.11-.76-.3-1.51-.61-2.27-.93l-6.79,2.71L26.9,85c9.22-3.5,16.39-6.3,21.39-8.25A25.46,25.46,0,0,1,53.57,75c5.31-1,8.37.83,18.46,4.4,10.8,3.82,13,3.82,15.83,7,1.13,1.28,3.87,4.43,3.52,8.79a10.84,10.84,0,0,1-2.95,6.45l-1,.46.44.12a8,8,0,0,0,.57-.58c15-6.57,17.79-7.89,32.87-14.49a8.59,8.59,0,0,1,5.73-.51,9.07,9.07,0,0,1,3,1.51A9.19,9.19,0,0,1,133.59,95.18Z"/><path class="cls-4" d="M86.9,97.19a6.5,6.5,0,0,1-.56.58l-.44-.12Z"/><path class="cls-4" d="M86.9,97.19a6.5,6.5,0,0,1-.56.58l-.44-.12Z"/><path class="cls-5" d="M26.9,85c9.22-3.5,16.39-6.3,21.39-8.25A25.46,25.46,0,0,1,53.57,75c5.31-1,8.37.83,18.46,4.4,10.8,3.82,13,3.82,15.83,7,1.13,1.28,3.87,4.43,3.52,8.79a10.84,10.84,0,0,1-2.95,6.45,8,8,0,0,1-.57.58l-.44-.12h0L63.24,95.18"/><path class="cls-5" d="M41.5,111.08l6.79-2.71q8.52,3.55,17.59,7,5.06,1.95,10,3.76a18.11,18.11,0,0,0,13.1-.26c17.13-7.06,22-8.83,39.1-15.89a8.72,8.72,0,0,0,5.1-5.34,8.47,8.47,0,0,0,.37-2.5,9.19,9.19,0,0,0-3.52-7,9.07,9.07,0,0,0-3-1.51,8.59,8.59,0,0,0-5.73.51c-15.08,6.6-17.82,7.92-32.87,14.49l-1,.46h0"/><line class="cls-5" x1="41.5" y1="111.08" x2="26.9" y2="84.96"/><path class="cls-6" d="M12.09,83.12a44.47,44.47,0,0,1,14.13-2.83c1,0,1.91,0,2.83,0l14.13,33.92a7.24,7.24,0,0,1,0,5.66c-1.59,3.12-6.39,4.71-11.31,2.82Z"/></g></g></svg>