<svg xmlns="http://www.w3.org/2000/svg" viewBox="0 0 62.26 116.09"><defs><style>.cls-1{fill:#be4059;}.cls-2{fill:#f1984a;}</style></defs><title>Asset 27</title><g id="Layer_2" data-name="Layer 2"><g id="Layer_1-2" data-name="Layer 1"><path class="cls-1" d="M61.31,42.56a36.41,36.41,0,0,1-2.08,6.36A39.79,39.79,0,0,1,57.14,53l-26,50.38v0L5.66,54c-.35-.69-.72-1.34-1.09-2A34.38,34.38,0,0,1,3,48.91,35.23,35.23,0,0,1,1,42.56,36.46,36.46,0,0,1,0,34.19C0,15.31,13.94,0,31.12,0c.9,0,1.8,0,2.71.13C49.25,1.56,61.5,15.56,62.22,32.55A37.06,37.06,0,0,1,61.31,42.56Z"/><ellipse class="cls-2" cx="31.13" cy="31.78" rx="17.79" ry="17.75"/><ellipse class="cls-2" cx="31.13" cy="110.8" rx="5.3" ry="5.29"/></g></g></svg>